<?xml version="1.0" standalone="no"?>
<!DOCTYPE svg PUBLIC "-//W3C//DTD SVG 20010904//EN"
 "http://www.w3.org/TR/2001/REC-SVG-20010904/DTD/svg10.dtd">
<svg version="1.0" xmlns="http://www.w3.org/2000/svg"
 width="268.000000pt" height="115.000000pt" viewBox="0 0 268.000000 115.000000"
 preserveAspectRatio="xMidYMid meet">

<g transform="translate(0.000000,115.000000) scale(0.100000,-0.100000)"
fill="#000000" stroke="none">
<path d="M830 985 c0 -28 4 -35 20 -35 16 0 20 7 20 35 0 28 -4 35 -20 35 -16
0 -20 -7 -20 -35z"/>
<path d="M1220 998 c-24 -13 -46 -29 -48 -35 -5 -18 38 -16 62 2 26 20 89 19
127 -1 17 -8 40 -14 52 -12 20 3 18 6 -16 32 -52 40 -117 45 -177 14z"/>
<path d="M1550 985 c0 -28 4 -35 20 -35 11 0 20 7 20 15 0 21 138 21 166 0 10
-8 27 -15 37 -15 15 0 16 3 7 21 -18 33 -71 49 -165 49 l-85 0 0 -35z"/>
<path d="M1910 985 c0 -28 4 -35 20 -35 11 0 20 7 20 15 0 12 18 15 105 15 98
0 105 1 105 20 0 19 -7 20 -125 20 l-125 0 0 -35z"/>
<path d="M2240 986 c0 -33 1 -34 43 -37 l43 -4 -21 37 c-14 26 -27 38 -42 38
-19 0 -23 -5 -23 -34z"/>
<path d="M2557 985 l-17 -35 40 0 c39 0 40 1 40 35 0 30 -3 35 -23 35 -17 0
-28 -10 -40 -35z"/>
<path d="M213 993 c4 -6 0 -13 -8 -17 -11 -4 -15 -19 -13 -58 l2 -53 3 49 c3
30 11 54 20 61 13 10 13 14 3 20 -8 5 -11 4 -7 -2z"/>
<path d="M92 846 c-17 -22 -18 -42 -17 -268 2 -221 4 -248 24 -298 22 -58 60
-110 80 -110 7 0 9 -5 5 -12 -4 -6 -3 -8 3 -5 6 4 14 0 17 -9 3 -8 10 -13 16
-9 5 3 -8 21 -28 40 -21 18 -49 55 -62 82 -24 47 -25 55 -28 297 -2 137 -1
260 2 272 8 31 42 40 66 19 18 -16 18 -16 13 4 -8 31 -65 29 -91 -3z"/>
<path d="M123 814 c-3 -8 -1 -20 6 -27 7 -7 11 -58 11 -144 0 -73 3 -133 8
-133 4 0 6 59 4 131 -2 89 1 135 9 145 6 7 9 21 5 29 -7 20 -35 19 -43 -1z
m37 -9 c0 -8 -7 -15 -15 -15 -8 0 -15 7 -15 15 0 8 7 15 15 15 8 0 15 -7 15
-15z"/>
<path d="M192 688 c-1 -76 1 -138 6 -138 4 0 6 42 4 92 -5 168 -8 185 -10 46z"/>
<path d="M1359 683 c-33 -14 -49 -14 -154 2 l-40 6 30 -25 c40 -35 104 -43
160 -22 50 20 73 41 52 49 -7 3 -29 -2 -48 -10z"/>
<path d="M830 660 l0 -30 130 0 c123 0 130 1 130 20 0 19 -7 20 -110 20 -67 0
-110 4 -110 10 0 6 -9 10 -20 10 -16 0 -20 -7 -20 -30z"/>
<path d="M1550 660 c0 -23 4 -30 20 -30 16 0 20 7 20 30 0 23 -4 30 -20 30
-16 0 -20 -7 -20 -30z"/>
<path d="M1760 685 c0 -21 36 -55 57 -55 l24 0 -21 30 c-18 25 -60 42 -60 25z"/>
<path d="M1910 660 l0 -30 130 0 c123 0 130 1 130 20 0 19 -7 20 -110 20 -67
0 -110 4 -110 10 0 6 -9 10 -20 10 -16 0 -20 -7 -20 -30z"/>
<path d="M2240 660 c0 -23 4 -30 20 -30 16 0 20 7 20 30 0 23 -4 30 -20 30
-16 0 -20 -7 -20 -30z"/>
<path d="M2580 660 c0 -23 4 -30 20 -30 16 0 20 7 20 30 0 23 -4 30 -20 30
-16 0 -20 -7 -20 -30z"/>
<path d="M124 455 c-8 -19 4 -35 24 -34 14 1 14 2 -1 6 -13 3 -17 11 -14 24 6
22 -1 26 -9 4z"/>
<path d="M156 456 c4 -11 17 -16 43 -15 34 2 34 2 6 6 -16 3 -36 10 -43 15 -9
8 -11 7 -6 -6z"/>
<path d="M2000 435 c0 -28 4 -35 20 -35 16 0 20 7 20 35 0 28 -4 35 -20 35
-16 0 -20 -7 -20 -35z"/>
<path d="M221 374 c0 -11 3 -14 6 -6 3 7 2 16 -1 19 -3 4 -6 -2 -5 -13z"/>
<path d="M221 334 c0 -11 3 -14 6 -6 3 7 2 16 -1 19 -3 4 -6 -2 -5 -13z"/>
<path d="M222 285 c0 -16 2 -22 5 -12 2 9 2 23 0 30 -3 6 -5 -1 -5 -18z"/>
<path d="M195 249 c-4 -6 -5 -12 -2 -15 2 -3 7 2 10 11 7 17 1 20 -8 4z"/>
<path d="M190 216 c0 -2 8 -10 18 -17 15 -13 16 -12 3 4 -13 16 -21 21 -21 13z"/>
<path d="M820 120 c0 -23 4 -30 20 -30 16 0 20 7 20 30 0 23 -4 30 -20 30 -16
0 -20 -7 -20 -30z"/>
<path d="M1010 120 c0 -25 4 -30 25 -30 21 0 25 5 25 30 0 25 -4 30 -25 30
-21 0 -25 -5 -25 -30z"/>
<path d="M1210 120 c0 -23 4 -30 20 -30 16 0 20 7 20 30 0 23 -4 30 -20 30
-16 0 -20 -7 -20 -30z"/>
<path d="M1351 134 c43 -52 149 -58 197 -10 24 24 25 26 7 26 -11 0 -29 -7
-39 -15 -25 -19 -87 -19 -112 0 -10 8 -30 15 -43 15 -20 0 -22 -2 -10 -16z"/>
<path d="M1671 134 c43 -52 149 -58 197 -10 24 24 25 26 7 26 -11 0 -29 -7
-39 -15 -25 -19 -87 -19 -112 0 -10 8 -30 15 -43 15 -20 0 -22 -2 -10 -16z"/>
<path d="M2000 132 c0 -27 20 -42 56 -42 42 0 64 9 64 26 0 9 -12 14 -34 14
-19 0 -38 5 -41 10 -11 17 -45 11 -45 -8z"/>
<path d="M2155 140 c-11 -17 47 -44 104 -48 46 -3 61 0 84 18 15 12 27 26 27
31 0 14 -33 10 -54 -6 -25 -19 -67 -19 -113 0 -42 18 -40 18 -48 5z"/>
</g>
</svg>
